<mxfile host="app.diagrams.net" modified="2021-01-19T02:34:12.150Z" agent="5.0 (Windows NT 10.0; Win64; x64) AppleWebKit/537.36 (KHTML, like Gecko) Chrome/87.0.4280.141 Safari/537.36" etag="a3yEvvgXq1P7hZ6iU1vO" version="14.1.3" type="github">
  <diagram id="xtOUaNXa3AuUCDFIiPIW" name="Page-1">
    <mxGraphModel dx="2272" dy="766" grid="1" gridSize="10" guides="1" tooltips="1" connect="1" arrows="1" fold="1" page="1" pageScale="1" pageWidth="850" pageHeight="1100" math="0" shadow="0">
      <root>
        <mxCell id="0" />
        <mxCell id="1" parent="0" />
        <mxCell id="aGJT9OwejRnP4bgd8Jt0-13" style="edgeStyle=orthogonalEdgeStyle;rounded=0;orthogonalLoop=1;jettySize=auto;html=1;exitX=0.5;exitY=1;exitDx=0;exitDy=0;" edge="1" parent="1" source="aGJT9OwejRnP4bgd8Jt0-2" target="aGJT9OwejRnP4bgd8Jt0-8">
          <mxGeometry relative="1" as="geometry" />
        </mxCell>
        <mxCell id="aGJT9OwejRnP4bgd8Jt0-2" value="InjectedProvider&lt;br&gt;Context" style="ellipse;whiteSpace=wrap;html=1;aspect=fixed;" vertex="1" parent="1">
          <mxGeometry x="345" y="90" width="90" height="90" as="geometry" />
        </mxCell>
        <mxCell id="aGJT9OwejRnP4bgd8Jt0-3" value="Hub &lt;br&gt;Page" style="whiteSpace=wrap;html=1;aspect=fixed;" vertex="1" parent="1">
          <mxGeometry x="510" y="740" width="80" height="80" as="geometry" />
        </mxCell>
        <mxCell id="aGJT9OwejRnP4bgd8Jt0-5" value="Index.js" style="rounded=0;whiteSpace=wrap;html=1;" vertex="1" parent="1">
          <mxGeometry x="330" y="20" width="120" height="60" as="geometry" />
        </mxCell>
        <mxCell id="aGJT9OwejRnP4bgd8Jt0-15" style="edgeStyle=orthogonalEdgeStyle;rounded=0;orthogonalLoop=1;jettySize=auto;html=1;exitX=0.5;exitY=1;exitDx=0;exitDy=0;" edge="1" parent="1" source="aGJT9OwejRnP4bgd8Jt0-6" target="aGJT9OwejRnP4bgd8Jt0-14">
          <mxGeometry relative="1" as="geometry" />
        </mxCell>
        <mxCell id="aGJT9OwejRnP4bgd8Jt0-6" value="OverlayContext" style="ellipse;whiteSpace=wrap;html=1;aspect=fixed;" vertex="1" parent="1">
          <mxGeometry x="345" y="330" width="90" height="90" as="geometry" />
        </mxCell>
        <mxCell id="aGJT9OwejRnP4bgd8Jt0-7" value="Theme&lt;br&gt;Context&lt;br&gt;(Chakra)" style="ellipse;whiteSpace=wrap;html=1;aspect=fixed;" vertex="1" parent="1">
          <mxGeometry x="345" y="270" width="90" height="90" as="geometry" />
        </mxCell>
        <mxCell id="aGJT9OwejRnP4bgd8Jt0-8" value="CustomTheme&lt;br&gt;Context" style="ellipse;whiteSpace=wrap;html=1;aspect=fixed;" vertex="1" parent="1">
          <mxGeometry x="345" y="200" width="90" height="90" as="geometry" />
        </mxCell>
        <mxCell id="aGJT9OwejRnP4bgd8Jt0-9" value="&lt;span style=&quot;font-size: 14px&quot;&gt;&amp;nbsp;handles Auth, Web3Modal, auth cache, chain data&lt;/span&gt;" style="text;html=1;strokeColor=none;fillColor=none;align=center;verticalAlign=middle;whiteSpace=wrap;rounded=0;" vertex="1" parent="1">
          <mxGeometry x="455" y="110" width="220" height="45" as="geometry" />
        </mxCell>
        <mxCell id="aGJT9OwejRnP4bgd8Jt0-10" value="Handles the creation and distribution of custom themes" style="text;html=1;strokeColor=none;fillColor=none;align=center;verticalAlign=middle;whiteSpace=wrap;rounded=0;" vertex="1" parent="1">
          <mxGeometry x="480" y="230" width="170" height="20" as="geometry" />
        </mxCell>
        <mxCell id="aGJT9OwejRnP4bgd8Jt0-11" value="Handles Chakra Theme Data" style="text;html=1;strokeColor=none;fillColor=none;align=center;verticalAlign=middle;whiteSpace=wrap;rounded=0;" vertex="1" parent="1">
          <mxGeometry x="480" y="290" width="170" height="20" as="geometry" />
        </mxCell>
        <mxCell id="aGJT9OwejRnP4bgd8Jt0-12" value="Central Top Level Modal and Toast utilities that can be called from anywhere" style="text;html=1;strokeColor=none;fillColor=none;align=center;verticalAlign=middle;whiteSpace=wrap;rounded=0;" vertex="1" parent="1">
          <mxGeometry x="475" y="345" width="180" height="60" as="geometry" />
        </mxCell>
        <mxCell id="aGJT9OwejRnP4bgd8Jt0-16" style="edgeStyle=orthogonalEdgeStyle;rounded=0;orthogonalLoop=1;jettySize=auto;html=1;exitX=0.5;exitY=1;exitDx=0;exitDy=0;" edge="1" parent="1" source="aGJT9OwejRnP4bgd8Jt0-14">
          <mxGeometry relative="1" as="geometry">
            <mxPoint x="390" y="580" as="targetPoint" />
          </mxGeometry>
        </mxCell>
        <mxCell id="aGJT9OwejRnP4bgd8Jt0-14" value="App.js" style="rounded=0;whiteSpace=wrap;html=1;" vertex="1" parent="1">
          <mxGeometry x="330" y="450" width="120" height="60" as="geometry" />
        </mxCell>
        <mxCell id="aGJT9OwejRnP4bgd8Jt0-20" style="edgeStyle=orthogonalEdgeStyle;rounded=0;orthogonalLoop=1;jettySize=auto;html=1;exitX=0;exitY=1;exitDx=0;exitDy=0;entryX=0.656;entryY=-0.011;entryDx=0;entryDy=0;entryPerimeter=0;" edge="1" parent="1" source="aGJT9OwejRnP4bgd8Jt0-18" target="aGJT9OwejRnP4bgd8Jt0-35">
          <mxGeometry relative="1" as="geometry">
            <mxPoint x="280" y="640" as="targetPoint" />
            <Array as="points">
              <mxPoint x="370" y="639" />
            </Array>
          </mxGeometry>
        </mxCell>
        <mxCell id="aGJT9OwejRnP4bgd8Jt0-21" style="edgeStyle=orthogonalEdgeStyle;rounded=0;orthogonalLoop=1;jettySize=auto;html=1;exitX=1;exitY=1;exitDx=0;exitDy=0;entryX=0.5;entryY=0;entryDx=0;entryDy=0;" edge="1" parent="1" source="aGJT9OwejRnP4bgd8Jt0-18" target="aGJT9OwejRnP4bgd8Jt0-3">
          <mxGeometry relative="1" as="geometry" />
        </mxCell>
        <mxCell id="aGJT9OwejRnP4bgd8Jt0-18" value="Router" style="rhombus;whiteSpace=wrap;html=1;" vertex="1" parent="1">
          <mxGeometry x="350" y="580" width="80" height="80" as="geometry" />
        </mxCell>
        <mxCell id="aGJT9OwejRnP4bgd8Jt0-19" value="Dao&amp;nbsp;&lt;br&gt;Page" style="whiteSpace=wrap;html=1;aspect=fixed;" vertex="1" parent="1">
          <mxGeometry x="110" y="920" width="80" height="80" as="geometry" />
        </mxCell>
        <mxCell id="aGJT9OwejRnP4bgd8Jt0-37" value="" style="edgeStyle=orthogonalEdgeStyle;rounded=0;orthogonalLoop=1;jettySize=auto;html=1;" edge="1" parent="1" source="aGJT9OwejRnP4bgd8Jt0-22" target="aGJT9OwejRnP4bgd8Jt0-24">
          <mxGeometry relative="1" as="geometry" />
        </mxCell>
        <mxCell id="aGJT9OwejRnP4bgd8Jt0-38" style="edgeStyle=orthogonalEdgeStyle;rounded=0;orthogonalLoop=1;jettySize=auto;html=1;exitX=0;exitY=0.5;exitDx=0;exitDy=0;entryX=0.5;entryY=0;entryDx=0;entryDy=0;" edge="1" parent="1" source="aGJT9OwejRnP4bgd8Jt0-22" target="aGJT9OwejRnP4bgd8Jt0-26">
          <mxGeometry relative="1" as="geometry" />
        </mxCell>
        <mxCell id="aGJT9OwejRnP4bgd8Jt0-39" style="edgeStyle=orthogonalEdgeStyle;rounded=0;orthogonalLoop=1;jettySize=auto;html=1;exitX=0;exitY=1;exitDx=0;exitDy=0;" edge="1" parent="1" source="aGJT9OwejRnP4bgd8Jt0-22" target="aGJT9OwejRnP4bgd8Jt0-25">
          <mxGeometry relative="1" as="geometry" />
        </mxCell>
        <mxCell id="aGJT9OwejRnP4bgd8Jt0-40" style="edgeStyle=orthogonalEdgeStyle;rounded=0;orthogonalLoop=1;jettySize=auto;html=1;exitX=1;exitY=0.5;exitDx=0;exitDy=0;entryX=0.5;entryY=0;entryDx=0;entryDy=0;" edge="1" parent="1" source="aGJT9OwejRnP4bgd8Jt0-22" target="aGJT9OwejRnP4bgd8Jt0-27">
          <mxGeometry relative="1" as="geometry" />
        </mxCell>
        <mxCell id="aGJT9OwejRnP4bgd8Jt0-41" style="edgeStyle=orthogonalEdgeStyle;rounded=0;orthogonalLoop=1;jettySize=auto;html=1;exitX=1;exitY=1;exitDx=0;exitDy=0;entryX=0.5;entryY=0;entryDx=0;entryDy=0;" edge="1" parent="1" source="aGJT9OwejRnP4bgd8Jt0-22" target="aGJT9OwejRnP4bgd8Jt0-23">
          <mxGeometry relative="1" as="geometry" />
        </mxCell>
        <mxCell id="aGJT9OwejRnP4bgd8Jt0-22" value="SubRouter" style="rhombus;whiteSpace=wrap;html=1;" vertex="1" parent="1">
          <mxGeometry x="110" y="990" width="80" height="90" as="geometry" />
        </mxCell>
        <mxCell id="aGJT9OwejRnP4bgd8Jt0-23" value="Members" style="whiteSpace=wrap;html=1;aspect=fixed;" vertex="1" parent="1">
          <mxGeometry x="200" y="1090" width="80" height="80" as="geometry" />
        </mxCell>
        <mxCell id="aGJT9OwejRnP4bgd8Jt0-24" value="Bank" style="whiteSpace=wrap;html=1;aspect=fixed;" vertex="1" parent="1">
          <mxGeometry x="110" y="1090" width="80" height="80" as="geometry" />
        </mxCell>
        <mxCell id="aGJT9OwejRnP4bgd8Jt0-42" style="edgeStyle=orthogonalEdgeStyle;rounded=0;orthogonalLoop=1;jettySize=auto;html=1;exitX=0.25;exitY=0;exitDx=0;exitDy=0;fillColor=#d5e8d4;strokeColor=#82b366;strokeWidth=3;" edge="1" parent="1" source="aGJT9OwejRnP4bgd8Jt0-25" target="aGJT9OwejRnP4bgd8Jt0-30">
          <mxGeometry relative="1" as="geometry">
            <mxPoint x="40" y="850" as="targetPoint" />
            <Array as="points">
              <mxPoint x="40" y="870" />
            </Array>
          </mxGeometry>
        </mxCell>
        <mxCell id="aGJT9OwejRnP4bgd8Jt0-25" value="Proposals" style="whiteSpace=wrap;html=1;aspect=fixed;" vertex="1" parent="1">
          <mxGeometry x="20" y="1090" width="80" height="80" as="geometry" />
        </mxCell>
        <mxCell id="aGJT9OwejRnP4bgd8Jt0-26" value="Overview" style="whiteSpace=wrap;html=1;aspect=fixed;" vertex="1" parent="1">
          <mxGeometry x="-70" y="1090" width="80" height="80" as="geometry" />
        </mxCell>
        <mxCell id="aGJT9OwejRnP4bgd8Jt0-27" value="Settings" style="whiteSpace=wrap;html=1;aspect=fixed;" vertex="1" parent="1">
          <mxGeometry x="290" y="1090" width="80" height="80" as="geometry" />
        </mxCell>
        <mxCell id="aGJT9OwejRnP4bgd8Jt0-29" value="UserContext" style="ellipse;whiteSpace=wrap;html=1;aspect=fixed;" vertex="1" parent="1">
          <mxGeometry x="345" y="500" width="90" height="90" as="geometry" />
        </mxCell>
        <mxCell id="aGJT9OwejRnP4bgd8Jt0-34" style="edgeStyle=orthogonalEdgeStyle;rounded=0;orthogonalLoop=1;jettySize=auto;html=1;exitX=0.5;exitY=1;exitDx=0;exitDy=0;" edge="1" parent="1" source="aGJT9OwejRnP4bgd8Jt0-30" target="aGJT9OwejRnP4bgd8Jt0-19">
          <mxGeometry relative="1" as="geometry" />
        </mxCell>
        <mxCell id="aGJT9OwejRnP4bgd8Jt0-44" style="edgeStyle=orthogonalEdgeStyle;rounded=0;orthogonalLoop=1;jettySize=auto;html=1;entryX=0;entryY=0.5;entryDx=0;entryDy=0;exitX=0;exitY=0.5;exitDx=0;exitDy=0;fillColor=#d5e8d4;strokeColor=#82b366;strokeWidth=3;" edge="1" parent="1" source="aGJT9OwejRnP4bgd8Jt0-30" target="aGJT9OwejRnP4bgd8Jt0-35">
          <mxGeometry relative="1" as="geometry">
            <mxPoint x="40" y="660" as="targetPoint" />
            <mxPoint x="30" y="790" as="sourcePoint" />
            <Array as="points">
              <mxPoint x="40" y="845" />
              <mxPoint x="40" y="665" />
            </Array>
          </mxGeometry>
        </mxCell>
        <mxCell id="aGJT9OwejRnP4bgd8Jt0-30" value="TX Context" style="ellipse;whiteSpace=wrap;html=1;aspect=fixed;" vertex="1" parent="1">
          <mxGeometry x="105" y="800" width="90" height="90" as="geometry" />
        </mxCell>
        <mxCell id="aGJT9OwejRnP4bgd8Jt0-31" value="TokenContext" style="ellipse;whiteSpace=wrap;html=1;aspect=fixed;" vertex="1" parent="1">
          <mxGeometry x="105" y="740" width="90" height="90" as="geometry" />
        </mxCell>
        <mxCell id="aGJT9OwejRnP4bgd8Jt0-33" value="MetaData&lt;br&gt;Context" style="ellipse;whiteSpace=wrap;html=1;aspect=fixed;" vertex="1" parent="1">
          <mxGeometry x="105" y="680" width="90" height="90" as="geometry" />
        </mxCell>
        <mxCell id="aGJT9OwejRnP4bgd8Jt0-35" value="DaoContext" style="ellipse;whiteSpace=wrap;html=1;aspect=fixed;" vertex="1" parent="1">
          <mxGeometry x="105" y="620" width="90" height="90" as="geometry" />
        </mxCell>
        <mxCell id="aGJT9OwejRnP4bgd8Jt0-45" value="Fetches Data from the graph&lt;br&gt;Checks if the user is a member&lt;br&gt;Caches all graphData" style="text;html=1;strokeColor=none;fillColor=none;align=center;verticalAlign=middle;whiteSpace=wrap;rounded=0;" vertex="1" parent="1">
          <mxGeometry x="190" y="635" width="180" height="55" as="geometry" />
        </mxCell>
        <mxCell id="aGJT9OwejRnP4bgd8Jt0-46" value="Fetches Dao Metadata from API" style="text;html=1;strokeColor=none;fillColor=none;align=center;verticalAlign=middle;whiteSpace=wrap;rounded=0;" vertex="1" parent="1">
          <mxGeometry x="195" y="690" width="180" height="52.5" as="geometry" />
        </mxCell>
        <mxCell id="aGJT9OwejRnP4bgd8Jt0-47" value="1. Fetches to API and GitHub to get Logos and USD&lt;br&gt;2. Fetches to contract for Balances and Babe" style="text;html=1;strokeColor=none;fillColor=none;align=center;verticalAlign=middle;whiteSpace=wrap;rounded=0;" vertex="1" parent="1">
          <mxGeometry x="195" y="758.75" width="180" height="52.5" as="geometry" />
        </mxCell>
        <mxCell id="aGJT9OwejRnP4bgd8Jt0-48" value="Resposible for initiating DaoWide rerender.&amp;nbsp;" style="text;html=1;strokeColor=none;fillColor=none;align=center;verticalAlign=middle;whiteSpace=wrap;rounded=0;" vertex="1" parent="1">
          <mxGeometry x="200" y="830" width="180" height="52.5" as="geometry" />
        </mxCell>
        <mxCell id="aGJT9OwejRnP4bgd8Jt0-49" value="Fetches for Chart Data&lt;br&gt;" style="text;html=1;strokeColor=none;fillColor=none;align=center;verticalAlign=middle;whiteSpace=wrap;rounded=0;" vertex="1" parent="1">
          <mxGeometry x="90" y="1230" width="120" height="20" as="geometry" />
        </mxCell>
        <mxCell id="aGJT9OwejRnP4bgd8Jt0-51" value="Chart" style="rounded=0;whiteSpace=wrap;html=1;" vertex="1" parent="1">
          <mxGeometry x="112.5" y="1190" width="75" height="30" as="geometry" />
        </mxCell>
        <mxCell id="aGJT9OwejRnP4bgd8Jt0-53" value="OnSucces, we call refreshDao() i" style="text;html=1;align=center;verticalAlign=middle;whiteSpace=wrap;rounded=0;strokeColor=#82b366;fillColor=#d5e8d4;" vertex="1" parent="1">
          <mxGeometry x="-90" y="920" width="130" height="50" as="geometry" />
        </mxCell>
        <mxCell id="aGJT9OwejRnP4bgd8Jt0-54" value="Refetch Causes all Dao Data to be replenished and cached.&amp;nbsp;&lt;br&gt;All state below Dao Context is rerendered.&amp;nbsp;" style="text;html=1;align=center;verticalAlign=middle;whiteSpace=wrap;rounded=0;strokeColor=#82b366;fillColor=#d5e8d4;" vertex="1" parent="1">
          <mxGeometry x="-90" y="690" width="130" height="100" as="geometry" />
        </mxCell>
        <mxCell id="aGJT9OwejRnP4bgd8Jt0-55" value="Do we delete Hub&lt;br&gt;&amp;nbsp;cache as well?" style="ellipse;shape=cloud;whiteSpace=wrap;html=1;strokeColor=#82b366;fillColor=#d5e8d4;" vertex="1" parent="1">
          <mxGeometry x="-170" y="560" width="180" height="100" as="geometry" />
        </mxCell>
        <mxCell id="aGJT9OwejRnP4bgd8Jt0-57" value="Fetches User specific data from API and Graph. This is what we see on the hub page&lt;br&gt;" style="text;html=1;strokeColor=none;fillColor=none;align=center;verticalAlign=middle;whiteSpace=wrap;rounded=0;" vertex="1" parent="1">
          <mxGeometry x="470" y="520" width="180" height="60" as="geometry" />
        </mxCell>
      </root>
    </mxGraphModel>
  </diagram>
</mxfile>
